<?xml version="1.0" encoding="UTF-8"?>
<svg width="168" height="40" viewBox="0 0 168 40" xmlns="http://www.w3.org/2000/svg" xmlns:xlink="http://www.w3.org/1999/xlink" xml:space="preserve" version="1.1"  baseProfile="full">
 <g id="mainlayer" font-size="10" style="font-family: monospace">
<rect style="fill:#000" x="0" y="0" width="6" height="10"/>
<rect style="fill:#000" x="6" y="0" width="6" height="10"/>
<rect style="fill:#000" x="12" y="0" width="6" height="10"/>
<rect style="fill:#000" x="18" y="0" width="6" height="10"/>
<rect style="fill:#000" x="24" y="0" width="6" height="10"/>
<rect style="fill:#000" x="30" y="0" width="6" height="10"/>
<rect style="fill:#000" x="36" y="0" width="6" height="10"/>
<rect style="fill:#000" x="42" y="0" width="6" height="10"/>
<rect style="fill:#000" x="48" y="0" width="6" height="10"/>
<rect style="fill:#000" x="54" y="0" width="6" height="10"/>
<rect style="fill:#000" x="60" y="0" width="6" height="10"/>
<rect style="fill:#000" x="66" y="0" width="6" height="10"/>
<rect style="fill:#000" x="72" y="0" width="6" height="10"/>
<rect style="fill:#000" x="78" y="0" width="6" height="10"/>
<rect style="fill:#000" x="84" y="0" width="6" height="10"/>
<rect style="fill:#000" x="90" y="0" width="6" height="10"/>
<rect style="fill:#000" x="96" y="0" width="6" height="10"/>
<rect style="fill:#000" x="102" y="0" width="6" height="10"/>
<rect style="fill:#000" x="108" y="0" width="6" height="10"/>
<rect style="fill:#000" x="114" y="0" width="6" height="10"/>
<rect style="fill:#000" x="120" y="0" width="6" height="10"/>
<rect style="fill:#000" x="126" y="0" width="6" height="10"/>
<rect style="fill:#000" x="132" y="0" width="6" height="10"/>
<rect style="fill:#000" x="138" y="0" width="6" height="10"/>
<rect style="fill:#000" x="144" y="0" width="6" height="10"/>
<rect style="fill:#000" x="150" y="0" width="6" height="10"/>
<rect style="fill:#000" x="156" y="0" width="6" height="10"/>
<rect style="fill:#000" x="162" y="0" width="6" height="10"/>
<rect style="fill:#000" x="0" y="10" width="6" height="10"/>
<rect style="fill:#000" x="6" y="10" width="6" height="10"/>
<rect style="fill:#000" x="12" y="10" width="6" height="10"/>
<rect style="fill:#000" x="18" y="10" width="6" height="10"/>
<rect style="fill:#000" x="24" y="10" width="6" height="10"/>
<rect style="fill:#000" x="30" y="10" width="6" height="10"/>
<rect style="fill:#000" x="36" y="10" width="6" height="10"/>
<rect style="fill:#000" x="42" y="10" width="6" height="10"/>
<rect style="fill:#000" x="48" y="10" width="6" height="10"/>
<rect style="fill:#000" x="54" y="10" width="6" height="10"/>
<rect style="fill:#000" x="60" y="10" width="6" height="10"/>
<rect style="fill:#000" x="66" y="10" width="6" height="10"/>
<rect style="fill:#000" x="72" y="10" width="6" height="10"/>
<rect style="fill:#000" x="78" y="10" width="6" height="10"/>
<rect style="fill:#000" x="84" y="10" width="6" height="10"/>
<rect style="fill:#000" x="90" y="10" width="6" height="10"/>
<rect style="fill:#000" x="96" y="10" width="6" height="10"/>
<rect style="fill:#000" x="102" y="10" width="6" height="10"/>
<rect style="fill:#000" x="108" y="10" width="6" height="10"/>
<rect style="fill:#000" x="114" y="10" width="6" height="10"/>
<rect style="fill:#000" x="120" y="10" width="6" height="10"/>
<rect style="fill:#000" x="126" y="10" width="6" height="10"/>
<rect style="fill:#000" x="132" y="10" width="6" height="10"/>
<rect style="fill:#000" x="138" y="10" width="6" height="10"/>
<rect style="fill:#000" x="144" y="10" width="6" height="10"/>
<rect style="fill:#000" x="150" y="10" width="6" height="10"/>
<rect style="fill:#000" x="156" y="10" width="6" height="10"/>
<rect style="fill:#000" x="162" y="10" width="6" height="10"/>
<rect style="fill:#000" x="0" y="20" width="6" height="10"/>
<rect style="fill:#000" x="6" y="20" width="6" height="10"/>
<rect style="fill:#000" x="12" y="20" width="6" height="10"/>
<rect style="fill:#000" x="18" y="20" width="6" height="10"/>
<rect style="fill:#000" x="24" y="20" width="6" height="10"/>
<rect style="fill:#000" x="30" y="20" width="6" height="10"/>
<rect style="fill:#000" x="36" y="20" width="6" height="10"/>
<rect style="fill:#000" x="42" y="20" width="6" height="10"/>
<rect style="fill:#000" x="48" y="20" width="6" height="10"/>
<rect style="fill:#000" x="54" y="20" width="6" height="10"/>
<rect style="fill:#000" x="60" y="20" width="6" height="10"/>
<rect style="fill:#000" x="66" y="20" width="6" height="10"/>
<rect style="fill:#000" x="72" y="20" width="6" height="10"/>
<rect style="fill:#000" x="78" y="20" width="6" height="10"/>
<rect style="fill:#000" x="84" y="20" width="6" height="10"/>
<rect style="fill:#000" x="90" y="20" width="6" height="10"/>
<rect style="fill:#000" x="96" y="20" width="6" height="10"/>
<rect style="fill:#000" x="102" y="20" width="6" height="10"/>
<rect style="fill:#000" x="108" y="20" width="6" height="10"/>
<rect style="fill:#000" x="114" y="20" width="6" height="10"/>
<rect style="fill:#000" x="120" y="20" width="6" height="10"/>
<rect style="fill:#000" x="126" y="20" width="6" height="10"/>
<rect style="fill:#000" x="132" y="20" width="6" height="10"/>
<rect style="fill:#000" x="138" y="20" width="6" height="10"/>
<rect style="fill:#000" x="144" y="20" width="6" height="10"/>
<rect style="fill:#000" x="150" y="20" width="6" height="10"/>
<rect style="fill:#000" x="156" y="20" width="6" height="10"/>
<rect style="fill:#000" x="162" y="20" width="6" height="10"/>
<rect style="fill:#000" x="0" y="30" width="6" height="10"/>
<rect style="fill:#000" x="6" y="30" width="6" height="10"/>
<rect style="fill:#000" x="12" y="30" width="6" height="10"/>
<rect style="fill:#000" x="18" y="30" width="6" height="10"/>
<rect style="fill:#000" x="24" y="30" width="6" height="10"/>
<rect style="fill:#000" x="30" y="30" width="6" height="10"/>
<rect style="fill:#000" x="36" y="30" width="6" height="10"/>
<rect style="fill:#000" x="42" y="30" width="6" height="10"/>
<rect style="fill:#000" x="48" y="30" width="6" height="10"/>
<rect style="fill:#000" x="54" y="30" width="6" height="10"/>
<rect style="fill:#000" x="60" y="30" width="6" height="10"/>
<rect style="fill:#000" x="66" y="30" width="6" height="10"/>
<rect style="fill:#000" x="72" y="30" width="6" height="10"/>
<rect style="fill:#000" x="78" y="30" width="6" height="10"/>
<rect style="fill:#000" x="84" y="30" width="6" height="10"/>
<rect style="fill:#000" x="90" y="30" width="6" height="10"/>
<rect style="fill:#000" x="96" y="30" width="6" height="10"/>
<rect style="fill:#000" x="102" y="30" width="6" height="10"/>
<rect style="fill:#000" x="108" y="30" width="6" height="10"/>
<rect style="fill:#000" x="114" y="30" width="6" height="10"/>
<rect style="fill:#000" x="120" y="30" width="6" height="10"/>
<rect style="fill:#000" x="126" y="30" width="6" height="10"/>
<rect style="fill:#000" x="132" y="30" width="6" height="10"/>
<rect style="fill:#000" x="138" y="30" width="6" height="10"/>
<rect style="fill:#000" x="144" y="30" width="6" height="10"/>
<rect style="fill:#000" x="150" y="30" width="6" height="10"/>
<rect style="fill:#000" x="156" y="30" width="6" height="10"/>
<rect style="fill:#000" x="162" y="30" width="6" height="10"/>
<text style="fill:#f5f" x="6" y="8">_</text>
<text style="fill:#f55" x="12" y="8">_</text>
<text style="fill:#f55" x="18" y="8">_</text>
<text style="fill:#5f5" x="36" y="8">_</text>
<text style="fill:#5f5" x="42" y="8">_</text>
<text style="fill:#5ff" x="48" y="8">_</text>
<text style="fill:#55f" x="66" y="8">_</text>
<text style="fill:#f5f" x="78" y="8">_</text>
<text style="fill:#f55" x="84" y="8">_</text>
<text style="fill:#5f5" x="108" y="8">_</text>
<text style="fill:#5f5" x="114" y="8">_</text>
<text style="fill:#5ff" x="126" y="8">_</text>
<text style="fill:#55f" x="138" y="8">_</text>
<text style="fill:#f5f" x="150" y="8">_</text>
<text style="fill:#f55" x="156" y="8">_</text>
<text style="fill:#f55" x="0" y="18">/</text>
<text style="fill:#ff5" x="12" y="18">_</text>
<text style="fill:#ff5" x="18" y="18">_</text>
<text style="fill:#5f5" x="24" y="18">|</text>
<text style="fill:#5f5" x="30" y="18">/</text>
<text style="fill:#5ff" x="42" y="18">_</text>
<text style="fill:#55f" x="54" y="18">\</text>
<text style="fill:#f5f" x="60" y="18">|</text>
<text style="fill:#f55" x="72" y="18">'</text>
<text style="fill:#f55" x="78" y="18">_</text>
<text style="fill:#ff5" x="90" y="18">\</text>
<text style="fill:#5f5" x="102" y="18">/</text>
<text style="fill:#5ff" x="114" y="18">_</text>
<text style="fill:#55f" x="120" y="18">`</text>
<text style="fill:#f5f" x="132" y="18">|</text>
<text style="fill:#f55" x="144" y="18">'</text>
<text style="fill:#f55" x="150" y="18">_</text>
<text style="fill:#ff5" x="156" y="18">_</text>
<text style="fill:#ff5" x="162" y="18">|</text>
<text style="fill:#ff5" x="0" y="28">\</text>
<text style="fill:#ff5" x="6" y="28">_</text>
<text style="fill:#5f5" x="12" y="28">_</text>
<text style="fill:#5ff" x="24" y="28">\</text>
<text style="fill:#55f" x="36" y="28">(</text>
<text style="fill:#55f" x="42" y="28">_</text>
<text style="fill:#f5f" x="48" y="28">)</text>
<text style="fill:#f55" x="60" y="28">|</text>
<text style="fill:#ff5" x="72" y="28">|</text>
<text style="fill:#5f5" x="84" y="28">|</text>
<text style="fill:#5ff" x="96" y="28">|</text>
<text style="fill:#55f" x="108" y="28">(</text>
<text style="fill:#55f" x="114" y="28">_</text>
<text style="fill:#f5f" x="120" y="28">|</text>
<text style="fill:#f55" x="132" y="28">|</text>
<text style="fill:#ff5" x="144" y="28">|</text>
<text style="fill:#5f5" x="0" y="38">|</text>
<text style="fill:#5f5" x="6" y="38">_</text>
<text style="fill:#5ff" x="12" y="38">_</text>
<text style="fill:#5ff" x="18" y="38">_</text>
<text style="fill:#55f" x="24" y="38">/</text>
<text style="fill:#55f" x="30" y="38">\</text>
<text style="fill:#f5f" x="36" y="38">_</text>
<text style="fill:#f5f" x="42" y="38">_</text>
<text style="fill:#f55" x="48" y="38">_</text>
<text style="fill:#f55" x="54" y="38">/</text>
<text style="fill:#ff5" x="60" y="38">|</text>
<text style="fill:#ff5" x="66" y="38">_</text>
<text style="fill:#5f5" x="72" y="38">|</text>
<text style="fill:#5ff" x="84" y="38">|</text>
<text style="fill:#5ff" x="90" y="38">_</text>
<text style="fill:#55f" x="96" y="38">|</text>
<text style="fill:#55f" x="102" y="38">\</text>
<text style="fill:#f5f" x="108" y="38">_</text>
<text style="fill:#f5f" x="114" y="38">_</text>
<text style="fill:#f55" x="120" y="38">,</text>
<text style="fill:#f55" x="126" y="38">_</text>
<text style="fill:#ff5" x="132" y="38">|</text>
<text style="fill:#ff5" x="138" y="38">_</text>
<text style="fill:#5f5" x="144" y="38">|</text>
 </g>
</svg>
